{
  "source": "C:\\Users\\Peter\\Desktop\\stuff\\MIUN\\quantitative_research\\video_compression\\videos\\BVI-HD\\PaintingTilting_1920x1080_60fps.mp4",
  "output": "C:\\Users\\Peter\\Desktop\\stuff\\MIUN\\quantitative_research\\video_compression\\compressed_videos\\BVI-HD\\av1\\12\\PaintingTilting_1920x1080_60fps_av1.mkv",
  "codec": "av1",
  "ok": "Input #0, mov,mp4,m4a,3gp,3g2,mj2, from 'C:\\Users\\Peter\\Desktop\\stuff\\MIUN\\quantitative_research\\video_compression\\videos\\BVI-HD\\PaintingTilting_1920x1080_60fps.mp4':\n  Metadata:\n    major_brand     : isom\n    minor_version   : 512\n    compatible_brands: isomiso2avc1mp41\n    encoder         : Lavf54.28.101\n  Duration: 00:00:05.00, start: 0.000000, bitrate: 667707 kb/s\n  Stream #0:0[0x1](und): Video: h264 (High 4:4:4 Predictive) (avc1 / 0x31637661), yuv420p(progressive), 1920x1080, 667702 kb/s, 60 fps, 60 tbr, 60 tbn (default)\n    Metadata:\n      handler_name    : VideoHandler\n      vendor_id       : [0][0][0][0]\n[out#0/matroska @ 0000019e5e889480] Codec AVOption b:a (set bitrate (in bits/s)) has not been used for any stream. The most likely reason is either wrong type (e.g. a video option with no video streams) or that it is a private option of some decoder which was not actually used for any stream.\nStream mapping:\n  Stream #0:0 -> #0:0 (h264 (native) -> av1 (libsvtav1))\nPress [q] to stop, [?] for help\nSvt[info]: -------------------------------------------\nSvt[info]: SVT [version]:\tSVT-AV1 Encoder Lib v3.1.0-19-g6ecfe8ec\nSvt[info]: SVT [build]  :\tGCC 15.2.0\t 64 bit\nSvt[info]: LIB Build date: Aug 17 2025 11:37:13\nSvt[info]: -------------------------------------------\nSvt[info]: Level of Parallelism: 5\nSvt[info]: Number of PPCS 93\nSvt[info]: [asm level on system : up to avx2]\nSvt[info]: [asm level selected : up to avx2]\nSvt[info]: -------------------------------------------\nSvt[info]: SVT [config]: main profile\ttier (auto)\tlevel (auto)\nSvt[info]: SVT [config]: width / height / fps numerator / fps denominator \t\t: 1920 / 1080 / 60 / 1\nSvt[info]: SVT [config]: bit-depth / color format \t\t\t\t\t: 8 / YUV420\nSvt[info]: SVT [config]: preset / tune / pred struct \t\t\t\t\t: 4 / PSNR / random access\nSvt[info]: SVT [config]: gop size / mini-gop size / key-frame type \t\t\t: 321 / 16 / key frame\nSvt[info]: SVT [config]: BRC mode / target bitrate (kbps)\t\t\t\t: VBR / 12000 \nSvt[info]: SVT [config]: AQ mode / Variance Boost \t\t\t\t\t: 2 / 0\nSvt[info]: SVT [config]: sharpness / luminance-based QP bias \t\t\t\t: 0 / 0\nSvt[info]: SVT [config]: QP scale compress strength \t\t\t\t\t: 0\nSvt[info]: -------------------------------------------\nOutput #0, matroska, to 'C:\\Users\\Peter\\Desktop\\stuff\\MIUN\\quantitative_research\\video_compression\\compressed_videos\\BVI-HD\\av1\\12\\PaintingTilting_1920x1080_60fps_av1.mkv':\n  Metadata:\n    major_brand     : isom\n    minor_version   : 512\n    compatible_brands: isomiso2avc1mp41\n    encoder         : Lavf62.3.100\n  Stream #0:0(und): Video: av1 (AV01 / 0x31305641), yuv420p(tv, progressive), 1920x1080, q=2-31, 12000 kb/s, 60 fps, 1k tbn (default)\n    Metadata:\n      encoder         : Lavc62.11.100 libsvtav1\n      handler_name    : VideoHandler\n      vendor_id       : [0][0][0][0]\n    Side data:\n      cpb: bitrate max/min/avg: 0/0/12000000 buffer size: 12000000 vbv_delay: N/A\nframe=    0 fps=0.0 q=0.0 size=       0KiB time=N/A bitrate=N/A speed=N/A elapsed=0:00:05.17    \nframe=    0 fps=0.0 q=0.0 size=       0KiB time=N/A bitrate=N/A speed=N/A elapsed=0:00:05.69    \nframe=    0 fps=0.0 q=0.0 size=       0KiB time=N/A bitrate=N/A speed=N/A elapsed=0:00:06.29    \nframe=    0 fps=0.0 q=0.0 size=       0KiB time=N/A bitrate=N/A speed=N/A elapsed=0:00:06.86    \nframe=    0 fps=0.0 q=0.0 size=       0KiB time=N/A bitrate=N/A speed=N/A elapsed=0:00:07.43    \nframe=    0 fps=0.0 q=0.0 size=       0KiB time=N/A bitrate=N/A speed=N/A elapsed=0:00:07.99    \nframe=    0 fps=0.0 q=0.0 size=       0KiB time=N/A bitrate=N/A speed=N/A elapsed=0:00:08.56    \nframe=    0 fps=0.0 q=0.0 size=       0KiB time=N/A bitrate=N/A speed=N/A elapsed=0:00:09.10    \nframe=    1 fps=0.1 q=9.0 size=       1KiB time=00:00:00.00 bitrate=N/A speed=   0x elapsed=0:00:09.62    \nframe=    3 fps=0.3 q=25.0 size=       1KiB time=00:00:00.03 bitrate= 170.9kbits/s speed=0.00328x elapsed=0:00:10.16    \nframe=    8 fps=0.7 q=24.0 size=       1KiB time=00:00:00.11 bitrate=  48.8kbits/s speed=0.0109x elapsed=0:00:10.68    \nframe=   12 fps=1.1 q=20.0 size=       1KiB time=00:00:00.18 bitrate=  31.1kbits/s speed=0.0163x elapsed=0:00:11.23    \nframe=   19 fps=1.6 q=20.0 size=       1KiB time=00:00:00.30 bitrate=  19.0kbits/s speed=0.0255x elapsed=0:00:11.75    \nframe=   23 fps=1.9 q=21.0 size=       1KiB time=00:00:00.36 bitrate=  15.5kbits/s speed=0.0298x elapsed=0:00:12.32    \nframe=   28 fps=2.2 q=21.0 size=       1KiB time=00:00:00.45 bitrate=  12.7kbits/s speed=0.035x elapsed=0:00:12.87    \nframe=   35 fps=2.6 q=24.0 size=       1KiB time=00:00:00.56 bitrate=  10.1kbits/s speed=0.0422x elapsed=0:00:13.41    \nframe=   41 fps=2.9 q=13.0 size=       1KiB time=00:00:00.65 bitrate=   8.8kbits/s speed=0.0467x elapsed=0:00:13.92    \nframe=   47 fps=3.2 q=18.0 size=       1KiB time=00:00:00.75 bitrate=   7.6kbits/s speed=0.0518x elapsed=0:00:14.48    \nframe=   53 fps=3.5 q=20.0 size=       1KiB time=00:00:00.86 bitrate=   6.6kbits/s speed=0.0576x elapsed=0:00:15.04    \nframe=   58 fps=3.7 q=20.0 size=       1KiB time=00:00:00.95 bitrate=   6.0kbits/s speed=0.061x elapsed=0:00:15.56    \nframe=   64 fps=4.0 q=19.0 size=       1KiB time=00:00:01.05 bitrate=   5.4kbits/s speed=0.0652x elapsed=0:00:16.10    \nframe=   70 fps=4.2 q=31.0 size=       1KiB time=00:00:01.15 bitrate=   5.0kbits/s speed=0.0692x elapsed=0:00:16.62    \nframe=   75 fps=4.4 q=25.0 size=       1KiB time=00:00:01.23 bitrate=   4.6kbits/s speed=0.0719x elapsed=0:00:17.15    \nframe=   82 fps=4.6 q=22.0 size=       1KiB time=00:00:01.35 bitrate=   4.2kbits/s speed=0.0764x elapsed=0:00:17.68    \nframe=   87 fps=4.8 q=16.0 size=       1KiB time=00:00:01.43 bitrate=   4.0kbits/s speed=0.0787x elapsed=0:00:18.20    \nframe=   91 fps=4.9 q=25.0 size=       1KiB time=00:00:01.50 bitrate=   3.8kbits/s speed=0.0801x elapsed=0:00:18.73    \nframe=   99 fps=5.1 q=22.0 size=       1KiB time=00:00:01.63 bitrate=   3.5kbits/s speed=0.0848x elapsed=0:00:19.26    \nframe=  103 fps=5.2 q=17.0 size=       1KiB time=00:00:01.70 bitrate=   3.4kbits/s speed=0.0858x elapsed=0:00:19.81    \nframe=  109 fps=5.4 q=22.0 size=       1KiB time=00:00:01.80 bitrate=   3.2kbits/s speed=0.0884x elapsed=0:00:20.35    \nframe=  117 fps=5.6 q=20.0 size=       1KiB time=00:00:01.93 bitrate=   2.9kbits/s speed=0.0925x elapsed=0:00:20.89    \nframe=  122 fps=5.7 q=23.0 size=       1KiB time=00:00:02.01 bitrate=   2.8kbits/s speed=0.0942x elapsed=0:00:21.41    \nframe=  129 fps=5.9 q=9.0 size=       1KiB time=00:00:02.13 bitrate=   2.7kbits/s speed=0.0972x elapsed=0:00:21.95    \nframe=  135 fps=6.0 q=22.0 size=       1KiB time=00:00:02.23 bitrate=   2.6kbits/s speed=0.0993x elapsed=0:00:22.49    \nframe=  139 fps=6.0 q=22.0 size=       1KiB time=00:00:02.30 bitrate=   2.5kbits/s speed=0.0999x elapsed=0:00:23.01    \nframe=  147 fps=6.2 q=25.0 size=       1KiB time=00:00:02.43 bitrate=   2.3kbits/s speed=0.103x elapsed=0:00:23.55    \nframe=  151 fps=6.3 q=16.0 size=       1KiB time=00:00:02.50 bitrate=   2.3kbits/s speed=0.104x elapsed=0:00:24.08    \nframe=  157 fps=6.4 q=22.0 size=       1KiB time=00:00:02.60 bitrate=   2.2kbits/s speed=0.106x elapsed=0:00:24.62    \nframe=  164 fps=6.5 q=24.0 size=       1KiB time=00:00:02.70 bitrate=   2.1kbits/s speed=0.107x elapsed=0:00:25.18    \nframe=  167 fps=6.5 q=17.0 size=       1KiB time=00:00:02.76 bitrate=   2.1kbits/s speed=0.108x elapsed=0:00:25.71    \nframe=  173 fps=6.6 q=22.0 size=       1KiB time=00:00:02.86 bitrate=   2.0kbits/s speed=0.109x elapsed=0:00:26.23    \nframe=  181 fps=6.8 q=20.0 size=       1KiB time=00:00:03.00 bitrate=   1.9kbits/s speed=0.112x elapsed=0:00:26.77    \nframe=  186 fps=6.8 q=24.0 size=       1KiB time=00:00:03.08 bitrate=   1.8kbits/s speed=0.113x elapsed=0:00:27.31    \nframe=  193 fps=6.9 q=10.0 size=       1KiB time=00:00:03.20 bitrate=   1.8kbits/s speed=0.115x elapsed=0:00:27.83    \nframe=  199 fps=7.0 q=18.0 size=       1KiB time=00:00:03.30 bitrate=   1.7kbits/s speed=0.116x elapsed=0:00:28.35    \nframe=  205 fps=7.1 q=22.0 size=       1KiB time=00:00:03.40 bitrate=   1.7kbits/s speed=0.118x elapsed=0:00:28.91    \nframe=  213 fps=7.2 q=22.0 size=       1KiB time=00:00:03.53 bitrate=   1.6kbits/s speed=0.12x elapsed=0:00:29.46    \nframe=  217 fps=7.2 q=17.0 size=       1KiB time=00:00:03.60 bitrate=   1.6kbits/s speed=0.12x elapsed=0:00:29.98    \nframe=  225 fps=7.4 q=10.0 size=       1KiB time=00:00:03.73 bitrate=   1.5kbits/s speed=0.122x elapsed=0:00:30.50    \nframe=  233 fps=7.5 q=16.0 size=    5120KiB time=00:00:03.86 bitrate=10847.3kbits/s speed=0.124x elapsed=0:00:31.06    \nframe=  237 fps=7.5 q=21.0 size=    5120KiB time=00:00:03.93 bitrate=10663.5kbits/s speed=0.125x elapsed=0:00:31.57    \nframe=  243 fps=7.6 q=22.0 size=    5120KiB time=00:00:04.03 bitrate=10399.1kbits/s speed=0.125x elapsed=0:00:32.13    \nframe=  249 fps=7.6 q=16.0 size=    5120KiB time=00:00:04.13 bitrate=10147.5kbits/s speed=0.127x elapsed=0:00:32.64    \nframe=  255 fps=7.7 q=19.0 size=    5120KiB time=00:00:04.23 bitrate=9907.8kbits/s speed=0.128x elapsed=0:00:33.16    \nframe=  261 fps=7.7 q=20.0 size=    5120KiB time=00:00:04.33 bitrate=9679.2kbits/s speed=0.129x elapsed=0:00:33.69    \nframe=  267 fps=7.8 q=23.0 size=    5120KiB time=00:00:04.43 bitrate=9460.8kbits/s speed=0.13x elapsed=0:00:34.20    \nframe=  275 fps=7.9 q=23.0 size=    5120KiB time=00:00:04.56 bitrate=9184.6kbits/s speed=0.131x elapsed=0:00:34.73    \nframe=  281 fps=8.0 q=23.0 size=    5120KiB time=00:00:04.66 bitrate=8987.8kbits/s speed=0.132x elapsed=0:00:35.24    \nframe=  287 fps=8.0 q=23.0 size=    5120KiB time=00:00:04.76 bitrate=8799.2kbits/s speed=0.133x elapsed=0:00:35.77    \n[out#0/matroska @ 0000019e5e889480] video:6315KiB audio:0KiB subtitle:0KiB other streams:0KiB global headers:0KiB muxing overhead: 0.034034%\nframe=  300 fps=8.4 q=22.0 Lsize=    6318KiB time=00:00:04.98 bitrate=10385.4kbits/s speed=0.139x elapsed=0:00:35.92    \n",
  "seconds": 36.638527154922485,
  "probe_out": {}
}